<svg width="134" height="24" viewBox="0 0 134 24" fill="none" xmlns="http://www.w3.org/2000/svg">
<path d="M78.0852 6.85677V10.2845H88.0118V13.7122H78.0852V17.1399H90.5853V20.5675H75.5116C75.1866 20.5675 74.8749 20.4386 74.6451 20.209C74.4152 19.9794 74.2861 19.668 74.2861 19.3434V4.65325C74.2861 4.32858 74.4152 4.01721 74.6451 3.78763C74.8749 3.55806 75.1866 3.42908 75.5116 3.42908H90.5853L88.9922 6.85677H78.0852Z" fill="#4C12A1"/>
<path d="M97.0805 6.85677V17.1399H106.639V13.7122H100.144L101.737 10.2845H110.439V19.3434C110.439 19.668 110.309 19.9794 110.08 20.209C109.85 20.4386 109.538 20.5675 109.213 20.5675H94.507C94.182 20.5675 93.8703 20.4386 93.6404 20.209C93.4106 19.9794 93.2815 19.668 93.2815 19.3434V4.65325C93.2815 4.32858 93.4106 4.01721 93.6404 3.78763C93.8703 3.55806 94.182 3.42908 94.507 3.42908H110.439L108.845 6.85677H97.0805Z" fill="#4C12A1"/>
<path d="M119.398 13.7122L122.597 6.85677H123.822L127.021 13.7122H119.398ZM126.499 4.48922C126.351 4.17234 126.115 3.90424 125.82 3.71644C125.525 3.52864 125.182 3.42894 124.832 3.42908H121.573C121.223 3.42918 120.881 3.52898 120.586 3.71677C120.291 3.90456 120.056 4.17253 119.908 4.48922L112.4 20.5675H115.408C115.64 20.5662 115.866 20.4993 116.061 20.3745C116.257 20.2497 116.412 20.0721 116.511 19.8624L117.786 17.1399H128.608L129.882 19.8624C129.981 20.0732 130.138 20.2516 130.335 20.3764C130.531 20.5013 130.759 20.5676 130.992 20.5675H134L126.499 4.48922Z" fill="#4C12A1"/>
<path d="M69.5129 3.42908C69.8368 3.4307 70.147 3.56038 70.3755 3.78978C70.604 4.01919 70.7323 4.32964 70.7323 4.65325V20.5675H66.9516V8.64407L61.7493 19.8612C61.6512 20.0711 61.4955 20.2489 61.3003 20.374C61.105 20.499 60.8783 20.5661 60.6464 20.5675H58.7848C58.5527 20.5672 58.3255 20.5005 58.1301 20.3753C57.9347 20.2501 57.7791 20.0718 57.6819 19.8612L52.476 8.64407V20.5675H48.7014V4.65325C48.7014 4.32985 48.8295 4.01959 49.0578 3.79022C49.286 3.56085 49.5958 3.43102 49.9196 3.42908H53.0397C53.2717 3.43061 53.4986 3.49792 53.6938 3.62318C53.8891 3.74844 54.0447 3.9265 54.1426 4.13665L59.7138 16.1238L65.2837 4.13665C65.3816 3.9265 65.5372 3.74844 65.7325 3.62318C65.9277 3.49792 66.1546 3.43061 66.3866 3.42908H69.5129Z" fill="#4C12A1"/>
<path d="M30.7417 5.54571C30.9299 5.65555 31.0862 5.81251 31.1951 6.0011C31.3035 6.18953 31.3601 6.40321 31.3593 6.62053V17.4618C31.3593 17.6805 31.3018 17.8954 31.1927 18.0849C31.0833 18.2745 30.9256 18.4316 30.7356 18.5403L21.5235 23.8349C21.3345 23.9431 21.1205 24.0001 20.9027 24.0001C20.6849 24.0001 20.4709 23.9431 20.282 23.8349L17.6104 22.3439L22.119 19.6972C22.5051 19.4744 22.7441 18.9627 22.7441 18.5183V5.57141C22.7441 5.12826 22.5075 4.61901 22.1252 4.39621L17.5908 1.70302L20.2783 0.18136C20.4686 0.0698795 20.6852 0.0111084 20.9058 0.0111084C21.1264 0.0111084 21.343 0.0698795 21.5333 0.18136L30.7417 5.54571Z" fill="#2DC84D"/>
<path d="M41.216 5.54571C41.403 5.6561 41.5579 5.81331 41.6653 6.00182C41.7728 6.19033 41.8291 6.40359 41.8288 6.62053V17.4618C41.8292 17.6806 41.7717 17.8955 41.6621 18.0849C41.5526 18.2743 41.3949 18.4314 41.205 18.5403L31.9929 23.8349C31.804 23.9431 31.59 24.0001 31.3722 24.0001C31.1544 24.0001 30.9404 23.9431 30.7515 23.8349L28.0799 22.3439L32.5885 19.6972C32.9745 19.4744 33.2123 18.9627 33.2123 18.5183V5.57141C33.2123 5.12826 32.977 4.61901 32.5995 4.39621L28.0652 1.70302L30.7539 0.18136C30.9442 0.0698795 31.1608 0.0111084 31.3814 0.0111084C31.602 0.0111084 31.8186 0.0698795 32.0088 0.18136L41.216 5.54571Z" fill="#C5CFDA"/>
<path fill-rule="evenodd" clip-rule="evenodd" d="M20.8825 17.4862C20.8825 17.7049 20.8249 17.9197 20.7154 18.109C20.6059 18.2983 20.4484 18.4555 20.2588 18.5647L11.0822 23.8287C10.8931 23.9369 10.6789 23.9939 10.4609 23.9939C10.2429 23.9939 10.0287 23.9369 9.83955 23.8287L0.623782 18.5341C0.433904 18.4252 0.276212 18.2681 0.166672 18.0787C0.0571323 17.8893 -0.000364874 17.6743 1.74231e-06 17.4556V6.61432C-0.000348783 6.39738 0.055995 6.18412 0.163463 5.99561C0.270931 5.8071 0.4258 5.64987 0.612752 5.53949L9.82852 0.170252C10.0188 0.0587711 10.2354 0 10.456 0C10.6766 0 10.8932 0.0587711 11.0834 0.170252L20.2698 5.52725C20.4571 5.63726 20.6122 5.7944 20.7197 5.983C20.8272 6.17159 20.8834 6.38505 20.8825 6.60208V17.4862Z" fill="#4C12A1"/>
</svg>
